<svg id="Layer_1" data-name="Layer 1" xmlns="http://www.w3.org/2000/svg" viewBox="0 0 618.11 98.15"><defs><style>.cls-1{fill:#62c0bd;}.cls-2{fill:#585657;}</style></defs><title>OpenCharity</title><path class="cls-1" d="M111.89,318.93a38.94,38.94,0,0,0,55-55L153,277.79a19.46,19.46,0,0,1-27.3,27.3Z" transform="translate(-111.89 -249.2)"/><path class="cls-2" d="M435.06,260.52a38.94,38.94,0,0,0-55,55l13.83-13.83a19.46,19.46,0,0,1,27.3-27.3Z" transform="translate(-111.89 -249.2)"/><path class="cls-1" d="M361.17,295.29c0-12.91-4-22.88-19.52-22.88a17.34,17.34,0,0,0-15.51,8.67h-.22l.11-7.7H308.68v53.46H326V300.39c0-7.7,2.06-13.77,9.54-13.77,7.16,0,8.24,5.31,8.24,12.36v27.87h17.35Zm-96.52-.87c.22-5.1,3.91-10.74,11.06-10.74a10.78,10.78,0,0,1,11,10.74Zm38.17,4.12c0-15.62-11-26.13-26.79-26.13s-28.85,10.09-28.85,27.76,12,27.87,28.52,27.87,23.64-7.37,25.38-8.68l-6.83-9a30.09,30.09,0,0,1-16.05,5.1c-7.05,0-12.91-3.47-13.67-11.17h38.07s.22-3.15.22-5.75M226.48,300c0,8.24-5.1,13.88-12.58,13.88S201.42,308.2,201.42,300s5.1-13.88,12.47-13.88,12.58,5.64,12.58,13.88m17.68.22c0-15.72-9.76-27.76-25.16-27.76-8.13,0-13.88,3.14-17.79,7.81H201l.11-6.83H184.61v73.09H202V320.13c3.36,5,9,7.92,16.92,7.92,15.51,0,25.27-12.15,25.27-27.87" transform="translate(-111.89 -249.2)"/><path class="cls-2" d="M712.11,273.38l-12,34.38-12.15-34.38H669.81L691,325.22l-2,4.66c-1.41,3.47-3.25,3.47-5.21,3.47a23.51,23.51,0,0,1-6.4-1.41l-3.47,12.8a39.1,39.1,0,0,0,14.86,2.6c9.11,0,13.45-5.86,17.35-15.4L730,273.38Zm-43.05.11H657.23V259H639.77v14.53h-7.59v13.12h7.59v20.71c0,8.13,1.08,12.58,3.8,15.72s6.83,5,13,5a47,47,0,0,0,12.36-1.73l-.87-13.56a16.17,16.17,0,0,1-5.21,1c-2.28,0-3.36-.43-4.12-1.3s-1.52-2.06-1.52-6.61v-19.2h11.82Zm-43.6-.11H608.11v53.46h17.35Zm1.19-15.18c0-5.31-4-9-9.87-9s-9.87,3.69-9.87,9,4,9,9.87,9,9.87-3.58,9.87-9M602,273.38a12.48,12.48,0,0,0-5.42-1c-5.75,0-10.19,2.71-13.23,8.57h-.22l.11-7.59H565.92v53.47h17.35V303.1c0-6,1.41-9.44,2.71-11.17a10.18,10.18,0,0,1,8-3.9,14,14,0,0,1,6.29,1.3h.76ZM537.94,312.1A10.65,10.65,0,0,1,529,317c-4.77,0-8.13-2.49-8.13-6.61s3.15-6.29,8.46-6.51l8.57-.54Zm17.24-15.4c0-9-2.28-14.21-6.4-18.11s-10-6.18-20-6.18a52.64,52.64,0,0,0-22.88,5.42l4.56,11.28a34.17,34.17,0,0,1,16.38-4.77c6.94,0,11,2.93,11,8.57v1.19l-13.45.54c-9.87.43-20.82,4.45-20.82,16.37s10,17,19.41,17c8.68,0,13-4.56,15.29-6.83l.32,5.64h16.59Zm-58.89-1.41c0-13-4-22.88-19.52-22.88-7.92,0-13,3.9-15.72,8.68,0,0,.11-5.86.11-11.28V252H443.81v74.83h17.35V300.61c0-7.92,2.28-14,9.54-14s8.13,5.64,8.13,12.15v28.09H496.3Z" transform="translate(-111.89 -249.2)"/></svg>